<svg width="748" height="148" viewBox="0 0 748 148" fill="none" xmlns="http://www.w3.org/2000/svg">
<path fill-rule="evenodd" clip-rule="evenodd" d="M115.521 2.08896C114.665 3.31096 113.964 5.12896 113.964 6.12796C113.964 8.51596 110.797 14.637 105.232 23.006C99.7012 31.324 98.8062 36.459 101.732 43.074C105.117 50.726 112.568 54.866 122.956 54.866C131.271 54.866 136.624 51.757 140.301 44.793C142.894 39.883 143.118 38.689 142.653 32.256C142.004 23.279 138.734 16.573 131.098 8.56696C122.739 -0.198045 118.389 -2.00704 115.521 2.08896ZM367.173 16.934C357.932 18.89 355.251 30.09 362.415 36.82C367.841 41.917 379.511 39.819 381.989 33.3C385.741 23.432 377.818 14.68 367.173 16.934ZM214.964 79.836V139.866H225.464H235.964V98.666C235.964 75.872 236.345 57.89 236.817 58.416C237.285 58.938 239.265 63.191 241.217 67.866C245.547 78.242 269.229 133.294 271.006 137.116C272.214 139.713 272.656 139.866 278.948 139.866H285.611L298.44 110.116C305.496 93.753 313.563 75.191 316.367 68.866L321.464 57.366L321.725 98.616L321.986 139.866H331.975H341.964V79.866V19.866H329.625H317.285L316.015 22.616C314.381 26.154 308.303 40.381 297.964 64.866C284.511 96.726 280.955 105.006 279.673 107.451C278.568 109.561 276.731 105.731 259.351 65.068L240.245 20.366L227.605 20.086L214.964 19.806V79.836ZM478.964 79.699C478.964 112.608 479.15 139.72 479.377 139.949C479.603 140.179 484.441 140.227 490.127 140.058L500.464 139.75L500.111 134.123L499.757 128.495L504.714 132.952C510.958 138.565 517.889 140.866 528.552 140.865C535.253 140.865 537.427 140.409 542.758 137.887C564.366 127.665 573.352 97.101 562.015 72.39C558.085 63.824 552.132 57.567 544.188 53.653C538.377 50.79 536.316 50.321 528.201 50.018C519.778 49.704 518.369 49.922 513.514 52.298C510.56 53.743 506.529 56.712 504.556 58.896C502.583 61.079 500.856 62.866 500.717 62.867C500.578 62.867 500.594 53.192 500.752 41.367L501.04 19.866H490.002H478.964V79.699ZM667.964 79.866V139.866H678.538H689.112L688.846 111.616L688.579 83.366L691.265 78.162C695.196 70.547 700.73 67.512 709.742 68.03C714.804 68.321 717.239 68.992 719.601 70.746C725.299 74.976 725.42 75.706 725.964 108.866L726.464 139.366H736.964H747.464V106.866V74.366L744.555 68.066C741.069 60.516 734.044 53.763 727.28 51.458C724.428 50.486 719.248 49.866 713.982 49.866C706.706 49.866 704.544 50.271 700.159 52.456C697.3 53.881 693.612 56.683 691.962 58.684L688.964 62.322V41.094V19.866H678.464H667.964V79.866ZM606.454 49.852C600.49 50.729 592.458 54.618 587.326 59.114C582.725 63.144 577.964 70.492 577.964 73.562C577.964 75.819 578.176 75.866 588.295 75.866C598.38 75.866 598.659 75.804 600.008 73.283C603.779 66.238 617.92 63.343 625.066 68.153C628.763 70.642 630.799 74.073 631.635 79.225L632.171 82.532L624.318 84.181C619.998 85.089 611.964 86.573 606.464 87.481C584.716 91.069 574.727 99.655 574.842 114.661C574.962 130.326 586.374 140.722 603.785 141.029C615.156 141.229 621.723 138.895 627.91 132.454C629.806 130.48 631.751 128.866 632.234 128.866C632.717 128.866 632.986 131.228 632.832 134.116L632.551 139.366L642.758 139.651L652.964 139.936V108.082C652.964 71.721 652.568 69.106 645.916 61.549C640.946 55.903 631.875 51.3 622.964 49.901C615.791 48.775 613.816 48.77 606.454 49.852ZM415.106 51.814C406.587 54.961 400.031 60.55 396.866 67.366C392.863 75.984 395.698 89.099 402.867 95.131C406.74 98.39 416.176 101.414 428.82 103.449C434.012 104.284 439.53 105.624 441.082 106.427C446.2 109.073 447.351 114.078 444.078 119.446C441.205 124.157 436.029 126.152 427.872 125.691C419.922 125.242 416.466 123.254 413.598 117.481L411.732 113.725L402.598 114.074L393.464 114.423L393.814 117.881C394.593 125.574 401.799 134.152 410.681 137.959C417.624 140.935 428.065 142.097 436.865 140.874C455.508 138.28 467.964 127.172 467.964 113.138C467.964 103.711 463.642 96.811 454.964 92.384C450.663 90.19 434.391 85.81 425.054 84.333C414.157 82.61 412.484 70.471 422.563 66.26C429.994 63.155 440.48 66.18 444.464 72.577L446.464 75.789L456.108 75.827L465.751 75.866L464.803 71.646C463 63.622 458.004 57.808 448.964 53.215C444.044 50.715 442.252 50.39 431.964 50.127C422.474 49.886 419.527 50.181 415.106 51.814ZM359.964 95.366V139.866H370.464H380.964V95.366V50.866H370.464H359.964V95.366ZM1.16417 61.066C-0.314828 62.545 -0.400821 73.944 0.999179 82.866C4.03518 102.21 23.0542 121.178 45.7142 127.461C49.1522 128.414 51.9642 129.57 51.9642 130.03C51.9642 130.49 49.2292 130.866 45.8872 130.866C40.5042 130.866 39.4762 131.2 36.8872 133.789C34.6422 136.034 33.9642 137.629 33.9642 140.667C33.9642 142.967 34.5932 145.143 35.4692 145.87C36.6162 146.822 47.3312 147.148 80.5472 147.242C122.602 147.362 124.171 147.298 125.543 145.425C127.697 142.483 127.252 138.362 124.416 134.991C122.21 132.369 121.102 131.923 116.166 131.664C108.328 131.254 108.789 129.362 117.464 126.331C133.764 120.637 152.537 103.658 160.548 87.366C165.577 77.139 168.28 64.157 165.963 61.365C164.876 60.055 154.458 59.866 83.5422 59.866C21.7372 59.866 2.07817 60.152 1.16417 61.066ZM517.359 68.019C508.15 70.055 501.121 80.244 500.202 92.889C498.859 111.369 507.205 122.866 521.964 122.866C536.368 122.866 544.964 112.213 544.964 94.363C544.964 85.955 543.034 79.62 538.971 74.69C534.079 68.756 525.711 66.172 517.359 68.019ZM15.3002 79.051C16.1672 86.379 19.5252 92.5419 26.4322 99.4869C40.2482 113.377 57.8492 117.32 73.4482 110.02C81.3582 106.319 91.0122 97.465 94.1052 91.074C96.4192 86.294 99.1652 76 98.4392 74.825C98.2042 74.446 79.2682 74.106 56.3572 74.071L14.7022 74.007L15.3002 79.051ZM628.964 97.395C627.589 98.153 623.989 99.248 620.964 99.829C606.558 102.598 604.253 103.202 601.332 104.979C595.465 108.546 594.338 117.442 599.109 122.521C605.402 129.219 622.014 127.221 627.82 119.068C630.609 115.151 632.137 108.431 631.771 101.686L631.464 96.017L628.964 97.395Z" fill="#083617"/>
</svg>
