<svg width="748" height="148" viewBox="0 0 748 148" fill="none" xmlns="http://www.w3.org/2000/svg">
<path fill-rule="evenodd" clip-rule="evenodd" d="M115.557 2.22299C114.701 3.44499 114 5.26299 114 6.26199C114 8.64999 110.833 14.771 105.268 23.14C99.737 31.458 98.842 36.593 101.768 43.208C105.153 50.86 112.604 55 122.992 55C131.307 55 136.66 51.891 140.337 44.927C142.93 40.017 143.154 38.823 142.689 32.39C142.04 23.413 138.77 16.707 131.134 8.70099C122.775 -0.0640116 118.425 -1.87301 115.557 2.22299ZM367.209 17.068C357.968 19.024 355.287 30.224 362.451 36.954C367.877 42.051 379.547 39.953 382.025 33.434C385.777 23.566 377.854 14.814 367.209 17.068ZM215 79.97V140H225.5H236V98.8C236 76.006 236.381 58.024 236.853 58.55C237.321 59.072 239.301 63.325 241.253 68C245.583 78.376 269.265 133.428 271.042 137.25C272.25 139.847 272.692 140 278.984 140H285.647L298.476 110.25C305.532 93.887 313.599 75.325 316.403 69L321.5 57.5L321.761 98.75L322.022 140H332.011H342V80V20H329.661H317.321L316.051 22.75C314.417 26.288 308.339 40.515 298 65C284.547 96.86 280.991 105.14 279.709 107.585C278.604 109.695 276.767 105.865 259.387 65.202L240.281 20.5L227.641 20.22L215 19.94V79.97ZM479 79.833C479 112.742 479.186 139.854 479.413 140.083C479.639 140.313 484.477 140.361 490.163 140.192L500.5 139.884L500.147 134.257L499.793 128.629L504.75 133.086C510.994 138.699 517.925 141 528.588 140.999C535.289 140.999 537.463 140.543 542.794 138.021C564.402 127.799 573.388 97.235 562.051 72.524C558.121 63.958 552.168 57.701 544.224 53.787C538.413 50.924 536.352 50.455 528.237 50.152C519.814 49.838 518.405 50.056 513.55 52.432C510.596 53.877 506.565 56.846 504.592 59.03C502.619 61.213 500.892 63 500.753 63.001C500.614 63.001 500.63 53.326 500.788 41.501L501.076 20H490.038H479V79.833ZM668 80V140H678.574H689.148L688.882 111.75L688.615 83.5L691.301 78.296C695.232 70.681 700.766 67.646 709.778 68.164C714.84 68.455 717.275 69.126 719.637 70.88C725.335 75.11 725.456 75.84 726 109L726.5 139.5H737H747.5V107V74.5L744.591 68.2C741.105 60.65 734.08 53.897 727.316 51.592C724.464 50.62 719.284 50 714.018 50C706.742 50 704.58 50.405 700.195 52.59C697.336 54.015 693.648 56.817 691.998 58.818L689 62.456V41.228V20H678.5H668V80ZM606.49 49.986C600.526 50.863 592.494 54.752 587.362 59.248C582.761 63.278 578 70.626 578 73.696C578 75.953 578.212 76 588.331 76C598.416 76 598.695 75.938 600.044 73.417C603.815 66.372 617.956 63.477 625.102 68.287C628.799 70.776 630.835 74.207 631.671 79.359L632.207 82.666L624.354 84.315C620.034 85.223 612 86.707 606.5 87.615C584.752 91.203 574.763 99.789 574.878 114.795C574.998 130.46 586.41 140.856 603.821 141.163C615.192 141.363 621.759 139.029 627.946 132.588C629.842 130.614 631.787 129 632.27 129C632.753 129 633.022 131.362 632.868 134.25L632.587 139.5L642.794 139.785L653 140.07V108.216C653 71.855 652.604 69.24 645.952 61.683C640.982 56.037 631.911 51.434 623 50.035C615.827 48.909 613.852 48.904 606.49 49.986ZM415.142 51.948C406.623 55.095 400.067 60.684 396.902 67.5C392.899 76.118 395.734 89.233 402.903 95.265C406.776 98.524 416.212 101.548 428.856 103.583C434.048 104.418 439.566 105.758 441.118 106.561C446.236 109.207 447.387 114.212 444.114 119.58C441.241 124.291 436.065 126.286 427.908 125.825C419.958 125.376 416.502 123.388 413.634 117.615L411.768 113.859L402.634 114.208L393.5 114.557L393.85 118.015C394.629 125.708 401.835 134.286 410.717 138.093C417.66 141.069 428.101 142.231 436.901 141.008C455.544 138.414 468 127.306 468 113.272C468 103.845 463.678 96.945 455 92.518C450.699 90.324 434.427 85.944 425.09 84.467C414.193 82.744 412.52 70.605 422.599 66.394C430.03 63.289 440.516 66.314 444.5 72.711L446.5 75.923L456.144 75.961L465.787 76L464.839 71.78C463.036 63.756 458.04 57.942 449 53.349C444.08 50.849 442.288 50.524 432 50.261C422.51 50.02 419.563 50.315 415.142 51.948ZM360 95.5V140H370.5H381V95.5V51H370.5H360V95.5ZM1.2 61.2C-0.279 62.679 -0.364994 74.078 1.03501 83C4.07101 102.344 23.09 121.312 45.75 127.595C49.188 128.548 52 129.704 52 130.164C52 130.624 49.265 131 45.923 131C40.54 131 39.512 131.334 36.923 133.923C34.678 136.168 34 137.763 34 140.801C34 143.101 34.629 145.277 35.505 146.004C36.652 146.956 47.367 147.282 80.583 147.376C122.638 147.496 124.207 147.432 125.579 145.559C127.733 142.617 127.288 138.496 124.452 135.125C122.246 132.503 121.138 132.057 116.202 131.798C108.364 131.388 108.825 129.496 117.5 126.465C133.8 120.771 152.573 103.792 160.584 87.5C165.613 77.273 168.316 64.291 165.999 61.499C164.912 60.189 154.494 60 83.578 60C21.773 60 2.114 60.286 1.2 61.2ZM517.395 68.153C508.186 70.189 501.157 80.378 500.238 93.023C498.895 111.503 507.241 123 522 123C536.404 123 545 112.347 545 94.497C545 86.089 543.07 79.754 539.007 74.824C534.115 68.89 525.747 66.306 517.395 68.153ZM15.336 79.185C16.203 86.513 19.561 92.676 26.468 99.621C40.284 113.511 57.885 117.454 73.484 110.154C81.394 106.453 91.048 97.599 94.141 91.208C96.455 86.428 99.201 76.134 98.475 74.959C98.24 74.58 79.304 74.24 56.393 74.205L14.738 74.141L15.336 79.185ZM629 97.529C627.625 98.287 624.025 99.382 621 99.963C606.594 102.732 604.289 103.336 601.368 105.113C595.501 108.68 594.374 117.576 599.145 122.655C605.438 129.353 622.05 127.355 627.856 119.202C630.645 115.285 632.173 108.565 631.807 101.82L631.5 96.151L629 97.529Z" fill="white"/>
</svg>
